<?xml version="1.0" encoding="utf-8"?>
<!-- Generator: Adobe Illustrator 19.0.0, SVG Export Plug-In . SVG Version: 6.00 Build 0)  -->
<svg version="1.1" id="Layer_1" xmlns="http://www.w3.org/2000/svg" xmlns:xlink="http://www.w3.org/1999/xlink" x="0px" y="0px"
	 viewBox="0 0 300 300" style="enable-background:new 0 0 300 300;" xml:space="preserve">
<style type="text/css">
	.st0{fill:#FFFFFF;}
	.st1{fill:#E8A63A;}
</style>
<g id="XMLID_1_">
	<path id="XMLID_38_" class="st0" d="M155.3,272.2c-31.1,0-62.3,0.3-93.4-0.1C26.5,271.7-1,243.1,0,208.3c0.7-23,19.3-46.6,44.1-54
		c6.6-2,9.2-5.2,11.5-10.9c16.4-41.2,54.7-64.8,100.5-62.5c41.4,2.1,78.4,30.6,90,69.6c2.2,7.6,0.6,17.5,5,22.9
		c4,5,14.1,4.5,20.9,7.7c19.9,9.5,31.4,32,26.9,51.5c-5.3,23.1-24.5,39.1-48.3,39.4C218.9,272.4,187.1,272.2,155.3,272.2z"/>
	<path id="XMLID_37_" class="st1" d="M133.2,75.6c-8.3,2.1-15.5,3.3-22.3,5.7C82.1,91.5,61.6,110.5,50,139
		c-5.4,13.2-17.1,15.5-27.2,5.5C2.4,124.4-4.6,100.5,4.9,73.2c9.6-27.6,30.3-43.1,59-45.3c27.5-2,49.1,10.1,63.4,34.1
		C129.7,66.1,131.1,70.6,133.2,75.6z"/>
</g>
</svg>
